<svg xmlns="http://www.w3.org/2000/svg" width="26.394" height="26.387" viewBox="0 0 26.394 26.387">
  <path id="Path_6637" data-name="Path 6637" d="M234.2,349.6h.007a4.2,4.2,0,0,0,4.186-4.216v-1.933a12.7,12.7,0,1,0-12.7,12.694h6.147v-1.824H225.69a10.87,10.87,0,1,1,10.87-10.875v1.877a2.362,2.362,0,1,1-4.722.01v-1.882a6.15,6.15,0,0,0-6.151-6.15h0a6.15,6.15,0,1,0,0,12.3h0a6.189,6.189,0,0,0,4.357-1.811l.323-.324.277.365A4.473,4.473,0,0,0,234.2,349.6Zm-5.443-3.092a4.3,4.3,0,0,1-3.054,1.269h-.01a4.32,4.32,0,1,1,3.063-1.269Z" transform="translate(-212.494 -330.262)" fill="#fff" stroke="#fff" stroke-width="1"/>
</svg>
