<svg xmlns="http://www.w3.org/2000/svg" width="29.907" height="29.907" viewBox="0 0 29.907 29.907">
  <path id="Path_6465" data-name="Path 6465" d="M16.953,2A14.953,14.953,0,1,0,31.907,16.953,14.959,14.959,0,0,0,16.953,2ZM9.581,26.344c.643-1.346,4.561-2.662,7.372-2.662S23.7,25,24.325,26.344a11.851,11.851,0,0,1-14.744,0Zm16.882-2.168c-2.138-2.6-7.327-3.484-9.51-3.484s-7.372.882-9.51,3.484a11.963,11.963,0,1,1,19.021,0ZM16.953,7.981a5.234,5.234,0,1,0,5.234,5.234A5.22,5.22,0,0,0,16.953,7.981Zm0,7.477A2.243,2.243,0,1,1,19.2,13.215,2.24,2.24,0,0,1,16.953,15.458Z" transform="translate(-2 -2)" fill="#fff"/>
</svg>
