<svg xmlns="http://www.w3.org/2000/svg" width="25.06" height="25.06" viewBox="0 0 25.06 25.06">
  <g id="Group_10697" data-name="Group 10697" transform="translate(-8.137 -8.137)">
    <path id="Path_6448" data-name="Path 6448" d="M26.03,5.784V26.03h-21v-21h21M25.276,3H5.784A2.793,2.793,0,0,0,3,5.784V25.276A2.793,2.793,0,0,0,5.784,28.06H25.276a2.793,2.793,0,0,0,2.784-2.784V5.784A2.793,2.793,0,0,0,25.276,3Z" transform="translate(5.137 5.137)" fill="#fff"/>
    <path id="Path_6646" data-name="Path 6646" d="M15.846,19.638H7V17.11h8.846Zm3.791-5.055H7V12.055H19.638Zm0-5.055H7V7H19.638Z" transform="translate(7.321 7.321)" fill="#fff"/>
  </g>
</svg>
