<svg id="Group_9960" data-name="Group 9960" xmlns="http://www.w3.org/2000/svg" width="26.962" height="26.962" viewBox="0 0 26.962 26.962">
  <path id="Path_6443" data-name="Path 6443" d="M18.177,15.481A2.653,2.653,0,0,1,16.829,17.8V28.962h-2.7V17.8a2.669,2.669,0,0,1-1.348-2.319,2.7,2.7,0,0,1,5.392,0Zm-2.7-8.088a8.072,8.072,0,0,0-5.473,14.02L11.922,19.5a5.334,5.334,0,0,1-1.833-4.017,5.392,5.392,0,0,1,10.785,0A5.334,5.334,0,0,1,19.04,19.5l1.914,1.914a8.072,8.072,0,0,0-5.473-14.02Zm0-5.392A13.474,13.474,0,0,0,6.193,25.241l1.914-1.914a10.785,10.785,0,1,1,14.748,0l1.914,1.914A13.474,13.474,0,0,0,15.481,2Z" transform="translate(-2 -2)" fill="#fff"/>
</svg>
